<svg xmlns="http://www.w3.org/2000/svg" width="480" height="420" viewBox="0 0 480 420" shape-rendering="geometricPrecision" text-rendering="geometricPrecision" image-rendering="optimizeQuality" fill-rule="evenodd" clip-rule="evenodd"><defs><style type="text/css"><![CDATA[
    .fil2 {fill:#E6E6E6}
    .fil3 {fill:#E6E6E6;fill-rule:nonzero}
    .fil0 {fill:#FFD153;fill-rule:nonzero}
    .fil1 {fill:white;fill-rule:nonzero}
   ]]></style></defs><g id="Layer_x0020_1"><path class="fil0" d="M376 338c2 2 2 6 0 8s-6 2-8 0l-63-63c-2-2-2-6 0-8s6-2 8 0l63 63zm-201-201c2 2 2 6 0 8s-6 2-8 0l-63-63c-2-2-2-6 0-8s6-2 8 0l63 63zm251 67c3 0 6 3 6 6s-3 6-6 6h-89c-3 0-6-3-6-6s3-6 6-6h89zm-284 0c3 0 6 3 6 6s-3 6-6 6h-89c-3 0-6-3-6-6s3-6 6-6h89zm225-130c2-2 6-2 8 0s2 6 0 8l-63 63c-2 2-6 2-8 0s-2-6 0-8l63-63zm-201 201c2-2 6-2 8 0s2 6 0 8l-63 63c-2 2-6 2-8 0s-2-6 0-8l63-63zm199-19c3 1 4 5 3 8s-5 4-8 3l-33-14c-3-1-4-5-3-8s5-4 8-3l33 14zm-214-88c3 1 4 5 3 8s-5 4-8 3l-33-14c-3-1-4-5-3-8s5-4 8-3l33 14zm134-83c1-3 5-4 8-3s4 5 3 8l-14 33c-1 3-5 4-8 3s-4-5-3-8l14-33zm-88 214c1-3 5-4 8-3s4 5 3 8l-14 33c-1 3-5 4-8 3s-4-5-3-8l14-33zm164-145c3-1 6 0 8 3 1 3 0 6-3 8l-33 14c-3 1-6 0-8-3-1-3 0-6 3-8l33-14zm-213 88c3-1 6 0 8 3 1 3 0 6-3 8l-33 14c-3 1-6 0-8-3-1-3 0-6 3-8l33-14zm149 89c1 3 0 6-3 8-3 1-6 0-8-3l-14-33c-1-3 0-6 3-8 3-1 6 0 8 3l14 33zm-88-214c1 3 0 6-3 8-3 1-6 0-8-3l-14-33c-1-3 0-6 3-8 3-1 6 0 8 3l14 33zm26-94c0-3 3-6 6-6s6 3 6 6v88c0 3-3 6-6 6s-6-3-6-6v-88zm0 284c0-3 3-6 6-6s6 3 6 6v71c0 3-3 6-6 6s-6-3-6-6v-71zm6-24c41 0 74-33 74-74s-33-74-74-74-74 33-74 74 33 74 74 74z"/><g id="_891644896"><path class="fil1" d="M395 337c0-13-5-24-14-33-8-8-20-14-33-14-4 0-8 0-12 1-2 1-5 1-7 3v10c0 4 0 7-1 11 0 4-1 7-2 11-1 3-4 5-7 4s-5-4-4-7 1-6 2-10c0-3 1-6 1-10v-6c0-2 0-4-1-6-3-19-13-35-27-47s-31-19-51-19c-22 0-41 9-56 23-14 14-23 34-23 56 0 3 0 7 1 10 0 3 1 6 2 10 1 3-1 6-4 7h-9c-7 0-14 3-19 8s-8 11-8 19c0 7 3 14 8 19s11 8 19 8h199c13 0 24-5 33-14 8-8 14-20 14-33zm-5-41c11 11 17 25 17 41s-7 31-17 41c-11 11-25 17-41 17h-199c-11 0-20-4-27-11s-11-16-11-27 4-20 11-27 16-11 27-11v-3l-1-11c0-25 10-48 26-64s39-26 64-26c22 0 43 8 59 22 14 12 24 28 29 47l6-2c5-1 10-2 14-2 16 0 31 7 41 17zm-72-4"/><path class="fil2" d="M395 337c0-13-5-24-14-33-8-8-20-14-33-14-4 0-8 0-12 1-2 1-5 1-7 3v10c0 4 0 7-1 11 0 4-1 7-2 11-1 3-4 5-7 4s-5-4-4-7 1-6 2-10c0-3 1-6 1-10v-6c0-2 0-4-1-6-3-19-13-35-27-47s-31-19-51-19c-22 0-41 9-56 23-14 14-23 34-23 56 0 3 0 7 1 10 0 3 1 6 2 10 1 3-1 6-4 7h-9c-7 0-14 3-19 8s-8 11-8 19c0 7 3 14 8 19s11 8 19 8h199c13 0 24-5 33-14 8-8 14-20 14-33z"/><path class="fil3" d="M271 312c0-9-4-17-10-23s-14-10-23-10c-3 0-6 0-8 1l-4 1v6c0 3 0 6-1 8 0 3-1 6-2 8-1 3-4 5-7 4s-5-4-4-7c1-2 1-5 1-7v-12c0-2 0-3-1-4-2-13-9-25-19-34-10-8-23-13-37-13-16 0-30 6-40 17-10 10-17 24-17 40v7l1 7c1 3-1 6-4 7h-7c-5 0-9 2-13 5-3 3-5 8-5 13s2 9 5 13c3 3 8 5 13 5h146c9 0 17-4 23-10s10-14 10-23z"/><path class="fil1" d="M270 280c8 8 13 19 13 31s-5 23-13 31-19 13-31 13h-146c-8 0-16-3-21-9-5-5-9-13-9-21s3-16 9-21c5-5 12-8 20-9 0-3-1-6-1-8 0-19 8-36 20-48s29-20 48-20c17 0 32 6 44 16 10 9 18 20 22 34l3-1c4-1 7-1 11-1 12 0 23 5 31 13zm1 31c0-9-4-17-10-23s-14-10-23-10c-3 0-6 0-8 1l-4 1v6c0 3 0 6-1 8 0 3-1 6-2 8-1 3-4 5-7 4s-5-4-4-7c1-2 1-5 1-7v-12c0-2 0-3-1-4-2-13-9-25-19-34-10-8-23-13-37-13-16 0-30 6-40 17-10 10-17 24-17 40v7l1 7c1 3-1 6-4 7h-7c-5 0-9 2-13 5-3 3-5 8-5 13s2 9 5 13c3 3 8 5 13 5h146c9 0 17-4 23-10s10-14 10-23z"/></g></g></svg>